<svg width="17" height="17" viewBox="0 0 17 17" fill="none" xmlns="http://www.w3.org/2000/svg">
<path d="M7.57533 6.33054V7.30591H6.86133V8.49804H7.57533V12.0418H9.04299V8.49804H10.0276C10.0276 8.49804 10.1204 7.92641 10.165 7.30095H9.04866V6.48637C9.04866 6.36383 9.20875 6.2002 9.36741 6.2002H10.1664V4.9585H9.07912C7.5392 4.9585 7.57533 6.15204 7.57533 6.33054Z" fill="white"/>
<path d="M4.25033 2.83341C3.8746 2.83341 3.51427 2.98267 3.24859 3.24835C2.98291 3.51402 2.83366 3.87436 2.83366 4.25008V12.7501C2.83366 13.1258 2.98291 13.4861 3.24859 13.7518C3.51427 14.0175 3.8746 14.1667 4.25033 14.1667H12.7503C13.126 14.1667 13.4864 14.0175 13.7521 13.7518C14.0177 13.4861 14.167 13.1258 14.167 12.7501V4.25008C14.167 3.87436 14.0177 3.51402 13.7521 3.24835C13.4864 2.98267 13.126 2.83341 12.7503 2.83341H4.25033ZM4.25033 1.41675H12.7503C13.5018 1.41675 14.2224 1.71526 14.7538 2.24661C15.2851 2.77797 15.5837 3.49863 15.5837 4.25008V12.7501C15.5837 13.5015 15.2851 14.2222 14.7538 14.7536C14.2224 15.2849 13.5018 15.5834 12.7503 15.5834H4.25033C3.49888 15.5834 2.77821 15.2849 2.24686 14.7536C1.7155 14.2222 1.41699 13.5015 1.41699 12.7501V4.25008C1.41699 3.49863 1.7155 2.77797 2.24686 2.24661C2.77821 1.71526 3.49888 1.41675 4.25033 1.41675Z" fill="white"/>
</svg>
