<svg width="17" height="17" viewBox="0 0 17 17" fill="none" xmlns="http://www.w3.org/2000/svg">
<path d="M16.7465 3.49744C16.155 3.75953 15.5197 3.93661 14.8517 4.01665C15.5409 3.60425 16.0565 2.95519 16.3024 2.19057C15.6549 2.57518 14.9462 2.84591 14.2071 2.99098C13.7101 2.46035 13.0519 2.10863 12.3345 1.99044C11.6172 1.87226 10.8809 1.99421 10.2399 2.33737C9.59898 2.68053 9.08926 3.2257 8.7899 3.88823C8.49055 4.55077 8.4183 5.2936 8.58438 6.0014C7.27232 5.93552 5.98878 5.5945 4.81705 5.00046C3.64533 4.40642 2.6116 3.57264 1.78296 2.55323C1.49963 3.04198 1.33671 3.60865 1.33671 4.21215C1.33639 4.75544 1.47018 5.29041 1.72621 5.76959C1.98223 6.24877 2.35258 6.65734 2.80438 6.95907C2.28041 6.94239 1.768 6.80081 1.30979 6.54611V6.58861C1.30974 7.35059 1.57332 8.08913 2.0558 8.6789C2.53828 9.26867 3.20995 9.67335 3.95684 9.82428C3.47077 9.95582 2.96116 9.9752 2.4665 9.88094C2.67723 10.5366 3.08771 11.1099 3.64047 11.5207C4.19323 11.9314 4.86061 12.1591 5.54917 12.1717C4.3803 13.0893 2.93676 13.587 1.45075 13.5848C1.18752 13.5849 0.924515 13.5695 0.663086 13.5388C2.17146 14.5086 3.92733 15.0233 5.72059 15.0213C11.791 15.0213 15.1095 9.99357 15.1095 5.63307C15.1095 5.4914 15.106 5.34832 15.0996 5.20665C15.7451 4.73984 16.3023 4.16178 16.7451 3.49957L16.7465 3.49744Z" fill="white"/>
</svg>
