<svg width="17" height="17" viewBox="0 0 17 17" fill="none" xmlns="http://www.w3.org/2000/svg">
<g clip-path="url(#clip0_750_843)">
<path d="M16.6453 4.60889C16.549 4.26552 16.3615 3.95464 16.1027 3.70931C15.8366 3.45644 15.5104 3.27555 15.155 3.18373C13.8247 2.8331 8.49521 2.8331 8.49521 2.8331C6.2734 2.80782 4.05214 2.91901 1.84396 3.16602C1.48851 3.26463 1.16294 3.44956 0.896211 3.70435C0.634127 3.95652 0.444294 4.26748 0.345127 4.60819C0.10691 5.8915 -0.00883254 7.19455 -0.000539391 8.49977C-0.00903939 9.80381 0.106419 11.1064 0.345127 12.3914C0.442169 12.7306 0.631294 13.0402 0.894086 13.2902C1.15688 13.5403 1.48413 13.7209 1.84396 13.8165C3.19192 14.1664 8.49521 14.1664 8.49521 14.1664C10.7198 14.1917 12.9439 14.0806 15.155 13.8335C15.5104 13.7417 15.8366 13.5608 16.1027 13.3079C16.3648 13.0579 16.5511 12.7469 16.6446 12.4084C16.889 11.1255 17.0079 9.82194 16.9995 8.51606C17.0178 7.20466 16.8991 5.89492 16.6453 4.60819V4.60889ZM6.80088 10.9251V6.07514L11.235 8.50048L6.80088 10.9251Z" fill="white"/>
</g>
<defs>
<clipPath id="clip0_750_843">
<rect width="17" height="17" fill="white"/>
</clipPath>
</defs>
</svg>
